HIERARCHY
ROOT Hips
{
  OFFSET -69.4423 88.0299 51.6846
  CHANNELS 6 Xposition Yposition Zposition Zrotation Xrotation Yrotation
  JOINT Spine
  {
    OFFSET 12.0259 -0.162853 1.93176e-005
    CHANNELS 3 Zrotation Xrotation Yrotation
    JOINT Spine1
    {
      OFFSET 15.3169 -0.0121909 0
      CHANNELS 3 Zrotation Xrotation Yrotation
      JOINT Spine2
      {
        OFFSET 15.3176 -0.0121922 0
        CHANNELS 3 Zrotation Xrotation Yrotation
        JOINT Neck
        {
          OFFSET 19.9142 1.56236 0
          CHANNELS 3 Zrotation Xrotation Yrotation
          JOINT Head
          {
            OFFSET 6.92646 0 0
            CHANNELS 3 Zrotation Xrotation Yrotation
            End Site
            {
              OFFSET 20.7666 0 0
            }
          }
          JOINT LeftShoulder
          {
            OFFSET -4.94072 -1.14703 8.14416
            CHANNELS 3 Zrotation Xrotation Yrotation
            JOINT LeftArm
            {
              OFFSET 14.108 0 -2.74767e-005
              CHANNELS 3 Zrotation Xrotation Yrotation
              JOINT LeftForeArm
              {
                OFFSET 28.5802 -0.0783412 -0.0284884
                CHANNELS 3 Zrotation Xrotation Yrotation
                JOINT LeftHand
                {
                  OFFSET 27.092 0 0
                  CHANNELS 3 Zrotation Xrotation Yrotation
                  End Site
                  {
                    OFFSET 9.55928 -0.186424 0.145352
                  }
                }
              }
            }
          }
          JOINT RightShoulder
          {
            OFFSET -7.15748 -1.33027 -6.24935
            CHANNELS 3 Zrotation Xrotation Yrotation
            JOINT RightArm
            {
              OFFSET 14.108 0 1.82997e-005
              CHANNELS 3 Zrotation Xrotation Yrotation
              JOINT RightForeArm
              {
                OFFSET 28.5802 -0.0707221 2.30684e-005
                CHANNELS 3 Zrotation Xrotation Yrotation
                JOINT RightHand
                {
                  OFFSET 27.092 0 -1.30073e-005
                  CHANNELS 3 Zrotation Xrotation Yrotation
                  End Site
                  {
                    OFFSET 9.55929 -0.186417 -0.145354
                  }
                }
              }
            }
          }
        }
      }
    }
  }
  JOINT LeftUpLeg
  {
    OFFSET 0.00499725 -0.534999 8.837
    CHANNELS 3 Zrotation Xrotation Yrotation
    JOINT LeftLeg
    {
      OFFSET 39.9035 -0.00124594 0.000252775
      CHANNELS 3 Zrotation Xrotation Yrotation
      JOINT LeftFoot
      {
        OFFSET 39.6689 0 0
        CHANNELS 3 Zrotation Xrotation Yrotation
        JOINT LeftToe
        {
          OFFSET 10.1624 13.6296 0
          CHANNELS 3 Zrotation Xrotation Yrotation
          End Site
          {
            OFFSET 8.38147 0 0
          }
        }
      }
    }
  }
  JOINT RightUpLeg
  {
    OFFSET 0.00499725 -0.535 -8.837
    CHANNELS 3 Zrotation Xrotation Yrotation
    JOINT RightLeg
    {
      OFFSET 39.9036 -0.000268477 0.000106433
      CHANNELS 3 Zrotation Xrotation Yrotation
      JOINT RightFoot
      {
        OFFSET 39.6689 1.17892e-005 0
        CHANNELS 3 Zrotation Xrotation Yrotation
        JOINT RightToe
        {
          OFFSET 10.1624 13.6296 0
          CHANNELS 3 Zrotation Xrotation Yrotation
          End Site
          {
            OFFSET 8.38147 0 0
          }
        }
      }
    }
  }
}
MOTION
Frames:	9
Frame Time:	0.0333333
43.7709 90.0993 -36.1636 -85.625 80.6595 175.221 1.40932 -0.681249 0.245134 2.82185 -1.35577 0.507143 2.82184 -1.35577 0.507144 -10.9967 -11.8821 -17.156 46.5242 -9.67545 33.5175 -173.574 -13.9589 -101.422 -57.9779 17.3324 83.7237 -80.8184 21.7446 -31.3525 -1.13878 -80.6051 0.799862 -173.967 -16.3549 71.6328 -61.2021 -15.4912 -84.3273 -80.0115 -26.0977 33.8186 178.195 63.7354 -178.478 -11.8497 2.52996 -167.015 -46.3199 0.019348 -0.20261 -17.8909 -12.4844 -6.47818 90 3.18055e-015 -3.18055e-015 -7.48467 -7.36527 -177.61 -27.1068 -0.602609 0.659837 0.286032 8.84721 1.33194 90 -1.47101e-014 1.98785e-014 
42.7346 90.021 -34.5989 -78.0079 84.094 167.572 1.34335 -0.591098 0.325161 2.69031 -1.17393 0.664305 2.69031 -1.17395 0.664284 -10.5944 -11.6261 -16.8737 46.153 -9.6884 32.573 -173.845 -13.5977 -101.267 -58.6526 16.7204 84.97 -80.6772 21.5604 -31.3147 -0.641144 -80.0336 1.30986 -174.226 -15.9348 71.8013 -60.4763 -16.0579 -83.8509 -80.16 -26.2618 33.841 178.065 65.3753 -178.299 -13.1282 0.366494 -167.56 -49.344 0.407587 -0.300865 -13.6864 -0.438912 -0.891506 90 1.27222e-014 9.54166e-015 -6.08921 -4.94635 -176.441 -26.7377 -0.652221 0.636841 0.93778 8.22335 1.02377 90 3.97569e-016 -9.54166e-015 
41.8292 89.8101 -32.9712 -48.1062 86.8096 138.29 1.41958 -0.5074 0.280013 2.8418 -1.00723 0.572701 2.8418 -1.00723 0.57269 -9.9993 -11.4502 -17.0216 45.0317 -9.39893 32.5293 -174.405 -13.3243 -101.555 -59.4549 15.7537 85.5081 -80.3711 21.2335 -31.3164 -0.61896 -79.6739 1.3628 -174.802 -15.6356 71.4997 -59.023 -16.4807 -83.6962 -80.6765 -26.6415 33.8698 177.95 67.5655 -178.14 -13.5393 -1.20087 -169.263 -50.4613 0.68535 -0.369422 -9.35551 8.56516 2.17209 90 -7.15625e-015 -2.78299e-015 -4.76096 -3.02961 -176.235 -27.5371 -0.682723 0.592211 2.16526 7.33208 0.550197 90 -1.59028e-015 -7.95139e-016 
40.8696 89.5776 -31.53 -4.75661 87.6466 94.9248 1.37597 -0.630296 0.388238 2.75643 -1.25058 0.79171 2.75643 -1.25059 0.791708 -9.92288 -10.9772 -17.0173 44.8688 -8.89289 31.6734 -174.348 -12.8625 -101.617 -60.2089 14.9529 86.067 -80.4199 21.1891 -31.278 -0.483766 -78.8641 1.4962 -174.756 -15.134 71.4468 -58.112 -16.8521 -83.3221 -81.0283 -26.944 33.905 177.802 68.715 -177.957 -14.857 -3.37526 -170.768 -50.4508 0.754497 -0.417965 -6.69195 12.3067 2.86277 90 -4.77083e-015 -1.27222e-014 -3.83069 -1.65367 -175.4 -27.8119 -0.710083 0.557029 2.91563 7.13194 0.319428 90 1.43125e-014 5.56597e-015 
39.9513 89.4317 -30.01 52.6495 85.7539 37.5178 1.36844 -0.449854 0.481919 2.74076 -0.887582 0.974641 2.74075 -0.887589 0.974626 -10.7085 -10.6011 -16.6619 45.7816 -9.30011 29.8824 -173.382 -12.6251 -101.129 -60.829 14.1744 86.4528 -80.5707 21.2921 -31.2388 -0.429464 -78.4495 1.55283 -173.802 -14.8791 71.9444 -57.5296 -17.1962 -83.1032 -81.4593 -27.3045 33.9614 177.728 68.8806 -177.854 -15.7921 -3.85446 -172.092 -49.2322 0.756869 -0.492225 -4.79534 10.7775 2.33053 90 -6.36111e-015 -6.36111e-015 -2.75093 -0.0201861 -174.984 -27.6276 -0.735055 0.537989 3.41024 5.52956 -0.0444564 90 3.18055e-015 -4.77083e-015 
39.0023 89.3262 -28.5792 68.5973 83.1102 21.6433 1.30634 -0.356002 0.531031 2.61599 -0.699291 1.07021 2.61598 -0.6993 1.07021 -10.6139 -10.2914 -16.514 45.5465 -9.03042 29.2387 -173.364 -12.285 -101.049 -61.2679 13.7398 86.4658 -80.8754 21.536 -31.1997 -0.567409 -78.5648 1.41003 -173.788 -14.5319 72.0386 -57.1191 -17.2407 -83.026 -81.8186 -27.609 34.0096 177.619 69.4154 -177.724 -16.979 -4.29222 -173.488 -46.7966 0.73604 -0.62754 -4.2179 5.43822 1.22304 90 5.56597e-015 -0 -1.76657 1.48639 -174.688 -27.1786 -0.756145 0.531307 3.80574 4.14948 -0.33576 90 -1.59028e-014 1.59028e-015 
38.0739 89.2737 -27.239 75.9619 80.6738 14.3025 1.28597 -0.341334 0.616929 2.57561 -0.668286 1.24155 2.5756 -0.668289 1.24154 -11.0593 -9.89918 -16.1649 45.5438 -8.95642 28.1171 -172.744 -11.9491 -100.666 -61.4224 13.2382 86.2405 -81.1164 21.6974 -31.1791 -0.583342 -79.1776 1.37816 -173.178 -14.2125 72.4411 -56.7805 -16.9723 -82.8485 -82.1377 -27.8638 34.0512 177.554 69.6011 -177.649 -18.3542 -4.66066 -174.785 -43.1266 0.726121 -0.822858 -3.64634 0.379331 0.199559 90 -7.95139e-016 -9.54166e-015 -0.842504 2.43137 -174.494 -26.4181 -0.774221 0.527278 4.10097 2.71515 -0.616313 90 -5.96354e-015 1.59028e-015 
37.0508 89.108 -25.9479 80.6064 78.0036 9.5195 1.27468 -0.23207 0.686283 2.55208 -0.448383 1.37773 2.55207 -0.448398 1.37771 -11.3051 -9.55348 -16.0509 45.691 -8.38463 27.8251 -172.394 -11.6748 -100.558 -61.4554 13.243 85.9922 -81.3734 21.8956 -31.1593 -0.677706 -78.9027 1.25827 -172.828 -13.929 72.571 -56.138 -16.3791 -82.9877 -82.5674 -28.1957 34.1004 177.455 70.4906 -177.522 -19.4743 -4.48706 -175.379 -38.0301 0.746389 -1.07711 -3.99607 -0.852356 -0.0447132 90 -5.56597e-015 -1.27222e-014 -0.120333 3.57632 -174.111 -25.8379 -0.789561 0.522807 4.46675 1.44543 -0.870154 90 -3.57812e-015 -1.11319e-014 
35.7287 89.044 -24.5363 80.9245 75.547 7.57626 1.34137 -0.184413 1.12724 2.68613 -0.341929 2.25866 2.68612 -0.341931 2.25864 -11.1953 -9.20687 -15.9784 45.4999 -8.14113 26.9411 -172.392 -11.2798 -100.615 -61.3751 13.1243 86.3096 -81.6791 22.2126 -31.1444 -0.729937 -78.7737 1.1966 -172.851 -13.5593 72.5126 -56.1828 -16.4145 -83.0178 -82.8144 -28.3809 34.1374 177.298 71.341 -177.361 -19.9335 -4.81259 -174.259 -32.4261 0.750708 -1.34787 -4.99953 1.32642 0.509597 90 -1.03368e-014 -0 1.75058 4.60066 -172.193 -24.138 -0.816475 0.515883 4.13151 0.278556 -1.01078 90 -3.18055e-015 -4.77083e-015 
